<?xml version="1.0" encoding="utf-8"?>
<!-- Generator: Adobe Illustrator 17.0.0, SVG Export Plug-In . SVG Version: 6.00 Build 0)  -->
<!DOCTYPE svg PUBLIC "-//W3C//DTD SVG 1.1//EN" "http://www.w3.org/Graphics/SVG/1.1/DTD/svg11.dtd">
<svg version="1.1" id="Layer_1" xmlns="http://www.w3.org/2000/svg" xmlns:xlink="http://www.w3.org/1999/xlink" x="0px" y="0px"
	 width="111.563px" height="35.792px" viewBox="0 0 111.563 35.792" enable-background="new 0 0 111.563 35.792"
	 xml:space="preserve">
<g>
	<path fill="#78787B" d="M14.764,16.995v-6.517c0-4.185-2.417-6.421-6.952-6.421c-2.019,0-3.708,0.479-4.866,0.99
		C2.251,5.335,1.655,5.686,1.126,6.07l1.555,2.811c0.431-0.288,0.928-0.575,1.457-0.799c0.894-0.383,2.02-0.766,3.31-0.766
		c1.754,0,3.112,0.735,3.112,2.811v0.543H9.501C6.787,10.67,0,11.181,0,16.165c0,3.322,2.681,4.952,5.595,4.952
		c1.986,0,3.244-0.767,4.138-1.565c0.496-0.479,0.893-0.99,1.191-1.565h0.067c0,0.064,0,0.127-0.033,0.224
		c-0.033,0.16-0.066,0.352-0.066,0.607v0.192c0,0.926,0.596,1.725,2.151,1.725h3.973v-3.035h-1.523
		C14.996,17.698,14.764,17.475,14.764,16.995z M10.593,13.673c0,2.044-1.622,4.408-3.906,4.408c-1.555,0-2.449-0.991-2.449-2.236
		c0-2.459,3.973-2.715,5.661-2.715h0.695V13.673z"/>
	<path fill="#78787B" d="M28.901,4.057c-1.987,0-3.311,0.639-4.205,1.374c-0.496,0.415-0.926,0.863-1.224,1.374h-0.067
		c0.033-0.064,0.033-0.128,0.033-0.224V6.07V5.974c0-0.863-0.53-1.533-2.085-1.533h-4.337v3.035h1.887
		c0.497,0,0.729,0.224,0.729,0.702v15.909h-2.449v3.035h9.103v-3.035h-2.449v-3.866c0-0.415,0-0.766-0.034-1.022l-0.067-0.383h0.067
		c0.331,0.415,0.728,0.799,1.192,1.15c0.794,0.607,1.986,1.15,3.673,1.15c4.437,0,7.714-3.354,7.714-8.53
		C36.381,7.54,33.468,4.057,28.901,4.057z M27.907,17.698c-2.78,0-4.204-2.492-4.204-5.016c0-3.578,2.019-5.143,4.237-5.143
		c2.515,0,4.204,2.012,4.204,5.111C32.144,15.877,30.224,17.698,27.907,17.698z"/>
	<path fill="#78787B" d="M46.313,4.057c-5.064,0-8.574,3.514-8.574,8.53c0,4.6,3.476,8.53,9.07,8.53c2.118,0,3.807-0.543,4.999-1.15
		c0.695-0.352,1.324-0.703,1.82-1.118l-1.622-2.875c-0.43,0.319-0.893,0.607-1.423,0.863c-0.893,0.479-2.052,0.863-3.476,0.863
		c-2.549,0-4.8-1.566-5.064-4.536h11.685l0.066-0.511c0.034-0.288,0.034-0.639,0.034-0.863C53.828,7.476,51.179,4.057,46.313,4.057z
		 M42.142,10.766c0.398-2.172,1.92-3.578,4.071-3.578c1.821,0,3.178,1.31,3.278,3.578H42.142z"/>
	<path fill="#00C9AC" d="M80.905,19.966c0.695-0.352,1.324-0.703,1.821-1.118l-1.622-2.875c-0.431,0.319-0.894,0.607-1.424,0.863
		c-0.894,0.479-2.053,0.863-3.476,0.863c-2.549,0-4.8-1.566-5.065-4.536h11.685l0.066-0.511c0.034-0.288,0.034-0.639,0.034-0.863
		c0-4.313-2.648-7.731-7.514-7.731c-5.065,0-8.574,3.514-8.574,8.53c0,4.6,3.476,8.53,9.07,8.53
		C78.026,21.117,79.714,20.573,80.905,19.966z M75.312,7.188c1.82,0,3.178,1.31,3.277,3.578h-7.349
		C71.637,8.594,73.16,7.188,75.312,7.188z"/>
	<path fill="#78787B" d="M64.884,17.506c-1.192,0-3.376-0.352-3.376-3.162V7.476h3.839V4.441h-3.839V0h-2.47
		c-0.26,2.376-2.001,4.321-4.316,4.968v2.508h2.582v7.283c0,5.463,4.667,6.134,7.051,6.134c0.396,0,0.695,0,0.926-0.032l0.364-0.064
		v-3.322h-0.199C65.315,17.475,65.115,17.506,64.884,17.506z"/>
	<path fill="#00C9AC" d="M103.222,10.663h4.204V7.476h3.839V4.441h-3.839V0h-2.47c-0.26,2.376-2.001,4.321-4.315,4.968v2.508h2.582
		V10.663z"/>
	<path fill="#00C9AC" d="M111.364,17.475c-0.132,0-0.331,0.032-0.563,0.032c-1.192,0-3.376-0.352-3.376-3.162v-1.218h-4.204v1.633
		c0,1.729,0.469,2.976,1.184,3.875c-1.743,7.784-8.999,13.431-17.269,13.431c-5.13,0-10.001-2.149-13.361-5.896l-2.92,2.439
		c4.095,4.566,10.029,7.184,16.281,7.184c9.642,0,18.149-6.302,20.727-15.157c0.88,0.199,1.735,0.258,2.408,0.258
		c0.397,0,0.695,0,0.927-0.032l0.364-0.064v-3.322H111.364z"/>
	<path fill="#00C9AC" d="M93.586,10.67c-2.715,0-9.501,0.511-9.501,5.495c0,3.322,2.681,4.952,5.595,4.952
		c1.986,0,3.244-0.767,4.138-1.565c0.496-0.479,0.893-0.99,1.191-1.565h0.067c0,0.064,0,0.127-0.033,0.224
		c-0.033,0.16-0.066,0.352-0.066,0.607v0.192c0,0.926,0.596,1.725,2.151,1.725h3.973v-3.035h-1.523
		c-0.496,0-0.728-0.224-0.728-0.703v-6.517c0-4.185-2.417-6.421-6.952-6.421c-2.019,0-3.708,0.479-4.866,0.99
		c-0.695,0.288-1.291,0.639-1.82,1.022l1.555,2.811c0.431-0.288,0.928-0.575,1.457-0.799c0.894-0.383,2.02-0.766,3.31-0.766
		c1.754,0,3.112,0.735,3.112,2.811v0.543H93.586z M94.677,13.13v0.543c0,2.044-1.622,4.408-3.906,4.408
		c-1.555,0-2.449-0.991-2.449-2.236c0-2.459,3.973-2.715,5.661-2.715H94.677z"/>
</g>
</svg>
